<svg width="84" height="42" viewBox="0 0 84 42" fill="none" xmlns="http://www.w3.org/2000/svg">
<rect x="0.5" y="0.5" width="83" height="41" rx="7.5" stroke="#F30AEA"/>
<path d="M18.688 25.816H22.592V27H17.232V15.848H18.688V25.816ZM29.1943 27.112C28.1596 27.112 27.2156 26.872 26.3623 26.392C25.5089 25.9013 24.8316 25.224 24.3303 24.36C23.8396 23.4853 23.5943 22.504 23.5943 21.416C23.5943 20.328 23.8396 19.352 24.3303 18.488C24.8316 17.6133 25.5089 16.936 26.3623 16.456C27.2156 15.9653 28.1596 15.72 29.1943 15.72C30.2396 15.72 31.1889 15.9653 32.0423 16.456C32.8956 16.936 33.5676 17.608 34.0583 18.472C34.5489 19.336 34.7943 20.3173 34.7943 21.416C34.7943 22.5147 34.5489 23.496 34.0583 24.36C33.5676 25.224 32.8956 25.9013 32.0423 26.392C31.1889 26.872 30.2396 27.112 29.1943 27.112ZM29.1943 25.848C29.9729 25.848 30.6716 25.6667 31.2903 25.304C31.9196 24.9413 32.4103 24.424 32.7623 23.752C33.1249 23.08 33.3063 22.3013 33.3063 21.416C33.3063 20.52 33.1249 19.7413 32.7623 19.08C32.4103 18.408 31.9249 17.8907 31.3063 17.528C30.6876 17.1653 29.9836 16.984 29.1943 16.984C28.4049 16.984 27.7009 17.1653 27.0823 17.528C26.4636 17.8907 25.9729 18.408 25.6103 19.08C25.2583 19.7413 25.0823 20.52 25.0823 21.416C25.0823 22.3013 25.2583 23.08 25.6103 23.752C25.9729 24.424 26.4636 24.9413 27.0823 25.304C27.7116 25.6667 28.4156 25.848 29.1943 25.848ZM45.1644 19.08C44.855 18.4293 44.407 17.928 43.8204 17.576C43.2337 17.2133 42.551 17.032 41.7724 17.032C40.9937 17.032 40.2897 17.2133 39.6604 17.576C39.0417 17.928 38.551 18.44 38.1884 19.112C37.8364 19.7733 37.6604 20.5413 37.6604 21.416C37.6604 22.2907 37.8364 23.0587 38.1884 23.72C38.551 24.3813 39.0417 24.8933 39.6604 25.256C40.2897 25.608 40.9937 25.784 41.7724 25.784C42.8604 25.784 43.7564 25.4587 44.4604 24.808C45.1644 24.1573 45.575 23.2773 45.6924 22.168H41.2444V20.984H47.2444V22.104C47.159 23.0213 46.871 23.864 46.3804 24.632C45.8897 25.3893 45.2444 25.992 44.4444 26.44C43.6444 26.8773 42.7537 27.096 41.7724 27.096C40.7377 27.096 39.7937 26.856 38.9404 26.376C38.087 25.8853 37.4097 25.208 36.9084 24.344C36.4177 23.48 36.1724 22.504 36.1724 21.416C36.1724 20.328 36.4177 19.352 36.9084 18.488C37.4097 17.6133 38.087 16.936 38.9404 16.456C39.7937 15.9653 40.7377 15.72 41.7724 15.72C42.9564 15.72 44.0017 16.0133 44.9084 16.6C45.8257 17.1867 46.4924 18.0133 46.9084 19.08H45.1644ZM54.8911 15.848V27H53.4351V15.848H54.8911ZM66.1406 27H64.6846L58.8286 18.12V27H57.3726V15.832H58.8286L64.6846 24.696V15.832H66.1406V27Z" fill="white"/>
</svg>
